Coordinates
version=1
nRows=17
nColumns=33
inDegrees=yes

Units are S.I. units (second, meters, Newtons, ...)
Angles are in degrees.

endheader
time	ground_thorax_rot_x	ground_thorax_rot_y	ground_thorax_rot_z	ground_thorax_tx	ground_thorax_ty	ground_thorax_tz	clav_prot_r	clav_elev_r	scapula_abduction_r	scapula_elevation_r	scapula_upward_rot_r	scapula_winging_r	shoulder_elv_r	plane_of_elev_r	axial_rot_r	elbow_flexion_r	pro_sup_r	wrist_flex_r	wrist_dev_r	clav_prot_l	clav_elev_l	scapula_abduction_l	scapula_elevation_l	scapula_upward_rot_l	scapula_winging_l	shoulder_elv_l	plane_of_elev_l	axial_rot_l	elbow_flexion_l	pro_sup_l	wrist_flex_l	wrist_dev_l
      2.28000000	     27.58284283	     44.30176826	     31.61732084	     -0.11805409	      1.00955376	      0.02128292	     -7.40434404	     44.73929242	    -31.72315601	     37.42068872	     41.55279421	      0.97088312	     16.83163439	    -89.49478913	      7.89629779	     81.93756959	      8.81729949	     24.81792676	     11.08747322	     28.65835295	    -34.79632256	    -45.00000000	     17.07139020	    -17.59928745	      3.24555151	     12.35424709	    -56.02309874	     -9.34336123	     71.62557833	     -0.65265806	      3.82125799	    -18.43723652
      2.29000000	     27.69142489	     44.22048168	     31.41947885	     -0.11799492	      1.00953271	      0.02109239	     -7.41054257	     44.68268115	    -31.47626903	     37.34783774	     41.52147036	      0.92425073	     17.34413854	    -89.18325222	      7.79265775	     82.66766614	      8.25442739	     22.91310712	     12.42988941	     28.69405610	    -34.84599072	    -45.00000000	     17.04105944	    -17.78475895	      3.23177280	     12.58227865	    -55.13901663	     -8.98362637	     71.72658458	     -1.36002661	      4.65274274	    -17.11797173
      2.30000000	     27.47496333	     44.26324632	     31.60891730	     -0.11792551	      1.00967467	      0.02109243	     -7.39749933	     44.68091217	    -31.26937333	     37.31683095	     41.55996851	      0.88157847	     17.39142927	    -88.91325483	      7.79528790	     82.82925796	      8.19583628	     22.81132446	     12.51979716	     28.69868497	    -34.97103101	    -45.00000000	     17.21449102	    -17.65311722	      3.08002133	     12.70927502	    -54.87660847	     -8.95474816	     71.57292600	     -1.40368924	      4.69791416	    -17.00117085
      2.31000000	     27.50576949	     44.23076563	     31.41902964	     -0.11788178	      1.00978176	      0.02085203	     -7.47889751	     44.54926238	    -31.07633105	     37.16953132	     41.46095893	      0.80839858	     18.11518801	    -88.48611008	      7.78988358	     83.45743806	      7.62808176	     20.80245221	     13.96936395	     28.73582519	    -35.03184026	    -45.00000000	     17.19720600	    -17.83283608	      3.05224943	     12.96162047	    -53.99368827	     -8.55330057	     71.58753292	     -2.13659765	      5.48606815	    -15.76549723
      2.32000000	     27.11521745	     44.40101521	     32.15247262	     -0.11814802	      1.00976139	      0.02081257	     -7.21298916	     44.58294872	    -31.41883864	     37.45171826	     41.13317181	      1.13075340	     21.10998686	    -87.79339325	     10.27839331	     83.83877892	      5.69910973	     19.19281644	     14.87837615	     28.95315881	    -35.51386312	    -45.00000000	     17.26963203	    -18.75208231	      2.74686411	     13.76771965	    -53.66748109	     -8.83273816	     71.71994579	     -3.60835622	      5.82926406	    -15.15323669
      2.33000000	     27.28284057	     44.29826006	     31.60981174	     -0.11794693	      1.00997123	      0.02053440	     -7.49253051	     44.46192516	    -31.04195847	     37.12051330	     41.32405807	      0.82188288	     21.73738419	    -87.32349632	     10.57327124	     83.99128857	      5.86835748	     18.60433685	     15.37861828	     28.88261612	    -35.38559489	    -45.00000000	     17.28995987	    -18.41329914	      2.81046699	     13.82146396	    -52.68652205	     -8.57763501	     71.33616686	     -3.64409734	      6.03179887	    -14.49686389
      2.34000000	     27.25574590	     44.32731721	     31.51003158	     -0.11796510	      1.00995703	      0.02035880	     -7.58218244	     44.34306849	    -30.72237537	     36.94597549	     41.29694318	      0.70103113	     23.05625011	    -86.94286067	     11.38192764	     84.39087595	      5.92202694	     17.07586199	     16.57654528	     28.86581146	    -35.45314350	    -45.00000000	     17.44544591	    -18.19665208	      2.69843295	     14.01116720	    -52.12847079	     -8.54620003	     71.18743533	     -3.90164208	      6.77492959	    -13.52468768
      2.35000000	     27.01425163	     44.46925914	     31.71468269	     -0.11802748	      1.01036205	      0.02009634	     -7.65756948	     44.24240053	    -30.52891641	     36.81343519	     41.25401699	      0.61841211	     23.35685393	    -86.49817858	     11.47017577	     84.18803844	      5.91665460	     16.81208582	     16.68309587	     28.88501261	    -35.61619894	    -45.00000000	     17.63563079	    -18.11434350	      2.51554777	     14.09050298	    -51.68769461	     -8.46999544	     70.82057415	     -3.94809008	      6.80012116	    -13.31978665
      2.36000000	     24.64555433	     46.53840670	     30.00375855	     -0.11841578	      1.02487335	      0.01819561	    -26.44785941	     23.15542118	    -44.09161135	     18.26924763	     24.73697430	     -7.58286700	    113.64258979	    -52.59002791	     83.31015334	     95.49832478	      1.29876333	     11.65327038	     19.18478268	     29.38680870	    -37.79771487	    -45.00000000	     19.49007770	    -18.73701992	      0.32857099	     19.52127347	    -52.45656623	    -10.20754678	     70.62528623	     -5.85174847	      7.14771226	    -11.25146228
      2.37000000	     24.52514470	     46.44013838	     30.24010372	     -0.11874539	      1.02482193	      0.01771684	    -26.06631157	     22.96084948	    -43.63999245	     18.31039792	     24.29385144	     -7.24884398	    113.23580591	    -52.73196619	     82.46149546	     95.66512172	     -0.56215402	      9.35974284	     19.13401286	     29.37224899	    -37.82218696	    -45.00000000	     19.56958084	    -18.60778125	      0.27313204	     19.11572266	    -51.77278628	     -9.59371049	     70.02305068	     -5.61780853	      7.59105076	    -11.40524134
      2.38000000	     24.33933503	     46.39744122	     30.19818588	     -0.11890957	      1.02513061	      0.01729463	    -25.90234203	     22.54695269	    -43.02695993	     18.02778871	     24.09508840	     -7.20337364	    112.69198949	    -52.84800837	     81.75195038	     95.38006703	     -0.98566930	      8.80445352	     19.44245209	     29.36586073	    -37.90933388	    -45.00000000	     19.71919729	    -18.45977113	      0.14349666	     19.26068052	    -51.20720543	     -9.36753603	     69.69941764	     -5.67196734	      7.85547527	    -10.83609080
      2.39000000	     24.06071845	     46.61266055	     30.49521582	     -0.11922890	      1.02540956	      0.01701514	    -25.79435334	     22.32763818	    -42.64118294	     17.86869037	     24.02351193	     -7.18448300	    112.43747361	    -52.85715860	     81.48830750	     95.09742759	     -1.04387811	      8.51708484	     19.54575265	     29.39270275	    -38.12119673	    -45.00000000	     19.96206967	    -18.38315527	     -0.10838227	     19.31756620	    -50.73786544	     -9.34059215	     69.15461079	     -5.67547279	      7.92503624	    -10.55234773
      2.40000000	     24.02398758	     46.53735340	     30.25409704	     -0.11934431	      1.02541242	      0.01663332	    -25.50826494	     22.00570175	    -41.95565445	     17.68851617	     23.82277027	     -7.05807235	    111.62892557	    -53.29598738	     80.19452507	     94.97314300	     -1.56499584	      7.07848703	     20.46746131	     29.41374566	    -38.16958515	    -45.00000000	     19.97705280	    -18.46045442	     -0.14435099	     19.67871233	    -49.78493454	     -9.02137968	     68.79814572	     -5.97937352	      8.60631404	     -9.52383630
      2.41000000	     23.85779928	     46.67611775	     30.46710936	     -0.11962939	      1.02529618	      0.01621829	    -25.25962290	     22.04000638	    -41.61710510	     17.76699647	     23.79292085	     -6.92271782	    110.70590242	    -53.48077081	     79.11595652	     94.67693437	     -2.03477114	      5.88054989	     21.13371303	     29.47982292	    -38.32177932	    -45.00000000	     20.02480559	    -18.70209068	     -0.26056237	     19.99820596	    -48.93329332	     -9.02565421	     68.32906462	     -6.22681660	      9.14768789	     -8.70584215
      2.42000000	     23.58049131	     46.93019848	     30.75239476	     -0.11987119	      1.02561818	      0.01584929	    -25.17038718	     21.79603671	    -41.22262411	     17.57741691	     23.73308456	     -6.92888752	    110.38437251	    -53.54454543	     78.73560922	     94.18685935	     -2.07110266	      5.52162452	     21.19997047	     29.52155070	    -38.54110906	    -45.00000000	     20.23839565	    -18.71405033	     -0.50105426	     20.08656368	    -48.36960919	     -8.99260452	     67.76123650	     -6.25679591	      9.19953637	     -8.41343511
      2.43000000	     23.60255321	     46.86854508	     30.54512492	     -0.12014771	      1.02546407	      0.01535123	    -24.78624554	     21.63838877	    -40.54206575	     17.54641418	     23.56842501	     -6.73838979	    109.32358281	    -53.90254469	     77.40567407	     93.82954439	     -2.49032932	      4.18784301	     21.94872592	     29.59318623	    -38.66326601	    -45.00000000	     20.22246058	    -19.03411736	     -0.56258849	     20.63419027	    -47.27611665	     -8.85053057	     67.33578788	     -6.60626735	      9.82801422	     -7.49995456
      2.44000000	     23.41327289	     47.03964108	     30.74910398	     -0.12042752	      1.02531079	      0.01494448	    -24.50982752	     21.73846377	    -40.15121628	     17.65728399	     23.62340404	     -6.61997325	    108.18817168	    -54.23084895	     76.28013210	     93.33838229	     -2.86170312	      3.13365796	     22.49103170	     29.69354881	    -38.83848138	    -45.00000000	     20.20415006	    -19.48224455	     -0.65684959	     21.15077285	    -46.27066635	     -8.92676598	     66.76723773	     -6.89282239	     10.26337806	     -6.75539350
